<svg width="320" height="568" viewBox="0 0 320 568" fill="none" xmlns="http://www.w3.org/2000/svg">
<rect width="320" height="568" fill="#636E72"/>
<rect width="320" height="568" fill="#2D3436"/>
<path d="M99 269C99 236.415 125.415 210 158 210H161C193.585 210 220 236.415 220 269V358H99V269Z" fill="#636E72" stroke="#DFE6E9" stroke-width="2"/>
<path d="M197 268V337H121V268C121 247.013 138.013 230 159 230C179.987 230 197 247.013 197 268Z" fill="#2D3436" stroke="#DFE6E9" stroke-width="2"/>
<path d="M122 304.5V268H137.4C137.471 273.869 138.406 276.979 143 283.293L122 304.5Z" fill="#636E72"/>
<line x1="132.13" y1="240.716" x2="197.13" y2="305.716" stroke="#DFE6E9" stroke-width="2"/>
<line x1="120.87" y1="305.716" x2="185.87" y2="240.716" stroke="#DFE6E9" stroke-width="2"/>
<line x1="120" y1="268" x2="198" y2="268" stroke="#DFE6E9" stroke-width="2"/>
<rect x="99" y="351" width="121" height="7" fill="#2D3436" stroke="#DFE6E9" stroke-width="2"/>
<rect x="107" y="344" width="104" height="7" fill="#2D3436" stroke="#DFE6E9" stroke-width="2"/>
<rect x="114" y="337" width="90" height="7" fill="#2D3436" stroke="#DFE6E9" stroke-width="2"/>
<circle cx="159" cy="268" r="22" fill="#636E72" stroke="#DFE6E9" stroke-width="2"/>
<path d="M157 255H161C161.735 255 162.186 255.002 162.513 255.046C162.8 255.085 162.847 255.139 162.853 255.146C162.853 255.146 162.853 255.146 162.854 255.146C162.854 255.147 162.854 255.147 162.854 255.147C162.861 255.153 162.915 255.2 162.954 255.487C162.998 255.814 163 256.265 163 257V260L163 260.062C163 260.716 163 261.303 163.064 261.779C163.134 262.299 163.296 262.831 163.732 263.268C164.169 263.704 164.701 263.866 165.221 263.936C165.697 264 166.284 264 166.938 264L167 264H171C171.735 264 172.186 264.002 172.513 264.046C172.799 264.085 172.847 264.139 172.853 264.146C172.853 264.146 172.853 264.146 172.854 264.146C172.854 264.147 172.854 264.147 172.854 264.147C172.861 264.153 172.915 264.2 172.954 264.487C172.998 264.814 173 265.265 173 266V270C173 270.735 172.998 271.186 172.954 271.513C172.915 271.8 172.861 271.847 172.854 271.853C172.854 271.853 172.854 271.853 172.854 271.854C172.853 271.854 172.853 271.854 172.853 271.854C172.847 271.861 172.8 271.915 172.513 271.954C172.186 271.998 171.735 272 171 272H167L166.938 272C166.284 272 165.697 272 165.221 272.064C164.701 272.134 164.169 272.296 163.732 272.732C163.296 273.169 163.134 273.701 163.064 274.221C163 274.697 163 275.284 163 275.938L163 276V311.125C163 311.306 163 311.417 162.997 311.501C162.994 311.581 162.99 311.601 162.99 311.598C162.951 311.796 162.796 311.951 162.598 311.99C162.601 311.99 162.581 311.994 162.501 311.997C162.417 312 162.306 312 162.125 312C160.567 312 159.934 311.995 159.427 311.894C157.245 311.46 155.54 309.755 155.106 307.573C155.005 307.066 155 306.433 155 304.875V276L155 275.938C155 275.284 155 274.697 154.936 274.221C154.866 273.701 154.704 273.169 154.268 272.732C153.831 272.296 153.299 272.134 152.779 272.064C152.303 272 151.716 272 151.062 272L151 272H147C146.265 272 145.814 271.998 145.487 271.954C145.2 271.915 145.153 271.861 145.147 271.854C145.147 271.854 145.147 271.854 145.146 271.854C145.146 271.853 145.146 271.853 145.146 271.853C145.139 271.847 145.085 271.8 145.046 271.513C145.002 271.186 145 270.735 145 270V266C145 265.265 145.002 264.814 145.046 264.487C145.085 264.2 145.139 264.153 145.146 264.147C145.146 264.147 145.146 264.147 145.146 264.146C145.147 264.146 145.147 264.146 145.147 264.146C145.153 264.139 145.2 264.085 145.487 264.046C145.814 264.002 146.265 264 147 264H151C151.021 264 151.041 264 151.062 264C151.716 264 152.303 264 152.779 263.936C153.299 263.866 153.831 263.704 154.268 263.268C154.704 262.831 154.866 262.299 154.936 261.779C155 261.303 155 260.716 155 260.062L155 260V257C155 256.265 155.002 255.814 155.046 255.487C155.085 255.2 155.139 255.153 155.146 255.147C155.146 255.147 155.146 255.147 155.146 255.146C155.147 255.146 155.147 255.146 155.147 255.146C155.153 255.139 155.2 255.085 155.487 255.046C155.814 255.002 156.265 255 157 255Z" fill="#2D3436" stroke="#DFE6E9" stroke-width="2"/>
<path d="M163 312H165C167.209 312 169 313.791 169 316V318C169 320.209 170.791 322 173 322H177C179.209 322 181 323.791 181 326V337" stroke="#DFE6E9" stroke-width="2"/>
<path d="M155 277H153.5C151.291 277 149.5 278.791 149.5 281V302.5C149.5 305.261 147.261 307.5 144.5 307.5H140.5C137.739 307.5 135.5 309.739 135.5 312.5V336.5" stroke="#DFE6E9" stroke-width="2"/>
<line x1="159" y1="230" x2="159" y2="246.31" stroke="#DFE6E9" stroke-width="2"/>
<path d="M143.5 251.6L132.5 241C140.87 233.392 146.286 231.339 158.7 230.5V245.5C152.362 245.792 149.271 247.231 143.5 251.6Z" fill="#636E72" stroke="#DFE6E9"/>
<path d="M196.6 267.6C195.894 255.807 193.927 250.546 185.5 241.3L174.8 252.3C179.514 257.827 181.17 260.62 181.5 267.6H196.6Z" fill="#636E72" stroke="#DFE6E9"/>
<path d="M163 310V337" stroke="#DFE6E9" stroke-width="2"/>
<path d="M155 298H148C144.686 298 142 300.686 142 304V337" stroke="#DFE6E9" stroke-width="2"/>
<path d="M121 320.5H149C151.761 320.5 154 322.739 154 325.5V337" stroke="#DFE6E9" stroke-width="2"/>
<path d="M197 314.5H189.5C186.739 314.5 184.5 316.739 184.5 319.5V337" stroke="#DFE6E9" stroke-width="2"/>
<path d="M163 299H169C171.209 299 173 300.791 173 303V325C173 327.209 171.209 329 169 329H163" stroke="#DFE6E9" stroke-width="2"/>
<path d="M153.6 277H155V298H149.6V281C149.6 278.791 151.391 277 153.6 277Z" fill="#2D3436" stroke="#DFE6E9" stroke-width="2"/>
<path d="M169 299H163V312H165C167.209 312 169 313.791 169 316V318C169 320.209 170.791 322 173 322V303C173 300.791 171.209 299 169 299Z" fill="#636E72" stroke="#DFE6E9" stroke-width="2"/>
<path d="M144.5 307.5H142V320.5H149C151.761 320.5 154 322.739 154 325.5V337H163V312H161C157.686 312 155 309.314 155 306V298H149.5V302.5C149.5 305.261 147.261 307.5 144.5 307.5Z" fill="#636E72" stroke="#DFE6E9" stroke-width="2"/>
<path d="M142 320.5H135.5V337H142V320.5Z" fill="#636E72" stroke="#DFE6E9" stroke-width="2"/>
<path d="M179 328H181V337H175V332C175 329.791 176.791 328 179 328Z" fill="#636E72" stroke="#DFE6E9" stroke-width="2"/>
<path d="M109.078 380L109.065 374.553L106.387 379.038H105.451L102.773 374.657V380H100.797V370.9H102.539L105.945 376.555L109.299 370.9H111.041L111.054 380H109.078ZM117.656 380.156C116.711 380.156 115.858 379.952 115.095 379.545C114.341 379.138 113.747 378.579 113.314 377.868C112.889 377.149 112.677 376.343 112.677 375.45C112.677 374.557 112.889 373.756 113.314 373.045C113.747 372.326 114.341 371.762 115.095 371.355C115.858 370.948 116.711 370.744 117.656 370.744C118.601 370.744 119.45 370.948 120.204 371.355C120.958 371.762 121.552 372.326 121.985 373.045C122.418 373.756 122.635 374.557 122.635 375.45C122.635 376.343 122.418 377.149 121.985 377.868C121.552 378.579 120.958 379.138 120.204 379.545C119.45 379.952 118.601 380.156 117.656 380.156ZM117.656 378.362C118.193 378.362 118.679 378.241 119.112 377.998C119.545 377.747 119.883 377.4 120.126 376.958C120.377 376.516 120.503 376.013 120.503 375.45C120.503 374.887 120.377 374.384 120.126 373.942C119.883 373.5 119.545 373.158 119.112 372.915C118.679 372.664 118.193 372.538 117.656 372.538C117.119 372.538 116.633 372.664 116.2 372.915C115.767 373.158 115.424 373.5 115.173 373.942C114.93 374.384 114.809 374.887 114.809 375.45C114.809 376.013 114.93 376.516 115.173 376.958C115.424 377.4 115.767 377.747 116.2 377.998C116.633 378.241 117.119 378.362 117.656 378.362ZM124.257 370.9H126.35V376.828L130.692 370.9H132.668V380H130.588V374.085L126.246 380H124.257V370.9ZM142.919 380.156C141.992 380.156 141.151 379.957 140.397 379.558C139.652 379.151 139.062 378.592 138.629 377.881C138.204 377.162 137.992 376.351 137.992 375.45C137.992 374.549 138.204 373.743 138.629 373.032C139.062 372.313 139.652 371.754 140.397 371.355C141.151 370.948 141.996 370.744 142.932 370.744C143.721 370.744 144.431 370.883 145.064 371.16C145.705 371.437 146.243 371.836 146.676 372.356L145.324 373.604C144.709 372.893 143.946 372.538 143.036 372.538C142.473 372.538 141.97 372.664 141.528 372.915C141.086 373.158 140.739 373.5 140.488 373.942C140.245 374.384 140.124 374.887 140.124 375.45C140.124 376.013 140.245 376.516 140.488 376.958C140.739 377.4 141.086 377.747 141.528 377.998C141.97 378.241 142.473 378.362 143.036 378.362C143.946 378.362 144.709 378.002 145.324 377.283L146.676 378.531C146.243 379.06 145.705 379.463 145.064 379.74C144.423 380.017 143.708 380.156 142.919 380.156ZM148.048 370.9H150.141V376.828L154.483 370.9H156.459V380H154.379V374.085L150.037 380H148.048V370.9ZM167.071 370.9V380H164.965V376.269H160.831V380H158.725V370.9H160.831V374.488H164.965V370.9H167.071ZM173.693 380.156C172.749 380.156 171.895 379.952 171.132 379.545C170.378 379.138 169.785 378.579 169.351 377.868C168.927 377.149 168.714 376.343 168.714 375.45C168.714 374.557 168.927 373.756 169.351 373.045C169.785 372.326 170.378 371.762 171.132 371.355C171.895 370.948 172.749 370.744 173.693 370.744C174.638 370.744 175.487 370.948 176.241 371.355C176.995 371.762 177.589 372.326 178.022 373.045C178.456 373.756 178.672 374.557 178.672 375.45C178.672 376.343 178.456 377.149 178.022 377.868C177.589 378.579 176.995 379.138 176.241 379.545C175.487 379.952 174.638 380.156 173.693 380.156ZM173.693 378.362C174.231 378.362 174.716 378.241 175.149 377.998C175.583 377.747 175.921 377.4 176.163 376.958C176.415 376.516 176.54 376.013 176.54 375.45C176.54 374.887 176.415 374.384 176.163 373.942C175.921 373.5 175.583 373.158 175.149 372.915C174.716 372.664 174.231 372.538 173.693 372.538C173.156 372.538 172.671 372.664 172.237 372.915C171.804 373.158 171.462 373.5 171.21 373.942C170.968 374.384 170.846 374.887 170.846 375.45C170.846 376.013 170.968 376.516 171.21 376.958C171.462 377.4 171.804 377.747 172.237 377.998C172.671 378.241 173.156 378.362 173.693 378.362ZM189.427 378.284V381.885H187.477V380H181.055V381.885H179.105L179.118 378.284H179.482C180.028 378.267 180.413 377.868 180.639 377.088C180.864 376.308 181.003 375.194 181.055 373.747L181.159 370.9H188.153V378.284H189.427ZM182.914 373.942C182.87 375.025 182.779 375.935 182.641 376.672C182.502 377.4 182.29 377.937 182.004 378.284H186.073V372.616H182.953L182.914 373.942ZM190.844 370.9H192.937V376.828L197.279 370.9H199.255V380H197.175V374.085L192.833 380H190.844V370.9ZM205.044 376.334H203.588V380H201.495V370.9H203.588V374.579H205.096L207.488 370.9H209.711L206.734 375.294L209.802 380H207.41L205.044 376.334ZM210.789 370.9H212.882V376.828L217.224 370.9H219.2V380H217.12V374.085L212.778 380H210.789V370.9Z" fill="#DFE6E9"/>
</svg>
